<svg width="308" height="321" viewBox="0 0 308 321" fill="none" xmlns="http://www.w3.org/2000/svg">
<path d="M259.022 166.927H48.4805V255.619H259.022V166.927Z" fill="#38BFF2" stroke="#263238" stroke-linecap="round" stroke-linejoin="round"/>
<path d="M72.6873 172.295H52.8809V183.26H72.6873V172.295Z" fill="white" stroke="#263238" stroke-miterlimit="10"/>
<path d="M254.153 225.757H222.955V236.721H254.153V225.757Z" fill="white" stroke="#263238" stroke-miterlimit="10"/>
<path d="M254.161 185.989H234.902V196.954H254.161V185.989Z" fill="white" stroke="#263238" stroke-miterlimit="10"/>
<path d="M72.6873 212.236H52.8809V223.201H72.6873V212.236Z" fill="white" stroke="#263238" stroke-miterlimit="10"/>
<path d="M68.9177 199.026H52.8809V209.99H68.9177V199.026Z" fill="white" stroke="#263238" stroke-miterlimit="10"/>
<path d="M63.8429 185.661H52.8809V196.625H63.8429V185.661Z" fill="white" stroke="#263238" stroke-miterlimit="10"/>
<path d="M77.8448 185.661H66.8828V196.625H77.8448V185.661Z" fill="white" stroke="#263238" stroke-miterlimit="10"/>
<path d="M91.837 185.661H80.875V196.625H91.837V185.661Z" fill="white" stroke="#263238" stroke-miterlimit="10"/>
<path d="M105.831 185.661H94.8691V196.625H105.831V185.661Z" fill="white" stroke="#263238" stroke-miterlimit="10"/>
<path d="M119.831 185.661H108.869V196.625H119.831V185.661Z" fill="white" stroke="#263238" stroke-miterlimit="10"/>
<path d="M133.825 185.661H122.863V196.625H133.825V185.661Z" fill="white" stroke="#263238" stroke-miterlimit="10"/>
<path d="M147.814 185.661H136.852V196.625H147.814V185.661Z" fill="white" stroke="#263238" stroke-miterlimit="10"/>
<path d="M161.816 185.661H150.854V196.625H161.816V185.661Z" fill="white" stroke="#263238" stroke-miterlimit="10"/>
<path d="M175.81 185.661H164.848V196.625H175.81V185.661Z" fill="white" stroke="#263238" stroke-miterlimit="10"/>
<path d="M189.81 185.661H178.848V196.625H189.81V185.661Z" fill="white" stroke="#263238" stroke-miterlimit="10"/>
<path d="M203.804 185.661H192.842V196.625H203.804V185.661Z" fill="white" stroke="#263238" stroke-miterlimit="10"/>
<path d="M217.798 185.661H206.836V196.625H217.798V185.661Z" fill="white" stroke="#263238" stroke-miterlimit="10"/>
<path d="M231.798 185.661H220.836V196.625H231.798V185.661Z" fill="white" stroke="#263238" stroke-miterlimit="10"/>
<path d="M63.8429 239.277H52.8809V250.242H63.8429V239.277Z" fill="white" stroke="#263238" stroke-miterlimit="10"/>
<path d="M77.8448 239.277H66.8828V250.242H77.8448V239.277Z" fill="white" stroke="#263238" stroke-miterlimit="10"/>
<path d="M91.837 239.277H80.875V250.242H91.837V239.277Z" fill="white" stroke="#263238" stroke-miterlimit="10"/>
<path d="M108.25 239.277H94.8691V250.242H108.25V239.277Z" fill="white" stroke="#263238" stroke-miterlimit="10"/>
<path d="M178.229 239.277H111.279V250.242H178.229V239.277Z" fill="white" stroke="#263238" stroke-miterlimit="10"/>
<path d="M225.691 239.277H214.729V250.242H225.691V239.277Z" fill="white" stroke="#263238" stroke-miterlimit="10"/>
<path d="M239.712 239.277H228.75V250.242H239.712V239.277Z" fill="white" stroke="#263238" stroke-miterlimit="10"/>
<path d="M197.989 239.277H180.967V250.242H197.989V239.277Z" fill="white" stroke="#263238" stroke-miterlimit="10"/>
<path d="M254.151 239.277H243.189V250.242H254.151V239.277Z" fill="white" stroke="#263238" stroke-miterlimit="10"/>
<path d="M82.9933 199.026H72.0312V209.99H82.9933V199.026Z" fill="white" stroke="#263238" stroke-miterlimit="10"/>
<path d="M96.9874 199.026H86.0254V209.99H96.9874V199.026Z" fill="white" stroke="#263238" stroke-miterlimit="10"/>
<path d="M110.987 199.026H100.025V209.99H110.987V199.026Z" fill="white" stroke="#263238" stroke-miterlimit="10"/>
<path d="M124.982 199.026H114.02V209.99H124.982V199.026Z" fill="white" stroke="#263238" stroke-miterlimit="10"/>
<path d="M138.983 199.026H128.021V209.99H138.983V199.026Z" fill="white" stroke="#263238" stroke-miterlimit="10"/>
<path d="M152.972 199.026H142.01V209.99H152.972V199.026Z" fill="white" stroke="#263238" stroke-miterlimit="10"/>
<path d="M166.966 199.026H156.004V209.99H166.966V199.026Z" fill="white" stroke="#263238" stroke-miterlimit="10"/>
<path d="M180.968 199.026H170.006V209.99H180.968V199.026Z" fill="white" stroke="#263238" stroke-miterlimit="10"/>
<path d="M194.96 199.026H183.998V209.99H194.96V199.026Z" fill="white" stroke="#263238" stroke-miterlimit="10"/>
<path d="M208.954 199.026H197.992V209.99H208.954V199.026Z" fill="white" stroke="#263238" stroke-miterlimit="10"/>
<path d="M222.954 199.026H211.992V209.99H222.954V199.026Z" fill="white" stroke="#263238" stroke-miterlimit="10"/>
<path d="M236.944 199.026H225.982V209.99H236.944V199.026Z" fill="white" stroke="#263238" stroke-miterlimit="10"/>
<path d="M254.149 199.026V223.365H243.187V209.99H239.975V199.026H254.149Z" fill="white" stroke="#263238" stroke-miterlimit="10"/>
<path d="M86.2081 212.391H75.2461V223.356H86.2081V212.391Z" fill="white" stroke="#263238" stroke-miterlimit="10"/>
<path d="M100.2 212.391H89.2383V223.356H100.2V212.391Z" fill="white" stroke="#263238" stroke-miterlimit="10"/>
<path d="M114.191 212.391H103.229V223.356H114.191V212.391Z" fill="white" stroke="#263238" stroke-miterlimit="10"/>
<path d="M128.191 212.391H117.229V223.356H128.191V212.391Z" fill="white" stroke="#263238" stroke-miterlimit="10"/>
<path d="M142.185 212.391H131.223V223.356H142.185V212.391Z" fill="white" stroke="#263238" stroke-miterlimit="10"/>
<path d="M156.185 212.391H145.223V223.356H156.185V212.391Z" fill="white" stroke="#263238" stroke-miterlimit="10"/>
<path d="M170.179 212.391H159.217V223.356H170.179V212.391Z" fill="white" stroke="#263238" stroke-miterlimit="10"/>
<path d="M184.173 212.391H173.211V223.356H184.173V212.391Z" fill="white" stroke="#263238" stroke-miterlimit="10"/>
<path d="M198.173 212.391H187.211V223.356H198.173V212.391Z" fill="white" stroke="#263238" stroke-miterlimit="10"/>
<path d="M212.167 212.391H201.205V223.356H212.167V212.391Z" fill="white" stroke="#263238" stroke-miterlimit="10"/>
<path d="M226.157 212.391H215.195V223.356H226.157V212.391Z" fill="white" stroke="#263238" stroke-miterlimit="10"/>
<path d="M240.157 212.391H229.195V223.356H240.157V212.391Z" fill="white" stroke="#263238" stroke-miterlimit="10"/>
<path d="M80.253 225.757H69.291V236.721H80.253V225.757Z" fill="white" stroke="#263238" stroke-miterlimit="10"/>
<path d="M94.2472 225.757H83.2852V236.721H94.2472V225.757Z" fill="white" stroke="#263238" stroke-miterlimit="10"/>
<path d="M108.247 225.757H97.2852V236.721H108.247V225.757Z" fill="white" stroke="#263238" stroke-miterlimit="10"/>
<path d="M122.241 225.757H111.279V236.721H122.241V225.757Z" fill="white" stroke="#263238" stroke-miterlimit="10"/>
<path d="M136.243 225.757H125.281V236.721H136.243V225.757Z" fill="white" stroke="#263238" stroke-miterlimit="10"/>
<path d="M150.235 225.757H139.273V236.721H150.235V225.757Z" fill="white" stroke="#263238" stroke-miterlimit="10"/>
<path d="M164.23 225.757H153.268V236.721H164.23V225.757Z" fill="white" stroke="#263238" stroke-miterlimit="10"/>
<path d="M178.23 225.757H167.268V236.721H178.23V225.757Z" fill="white" stroke="#263238" stroke-miterlimit="10"/>
<path d="M192.22 225.757H181.258V236.721H192.22V225.757Z" fill="white" stroke="#263238" stroke-miterlimit="10"/>
<path d="M206.214 225.757H195.252V236.721H206.214V225.757Z" fill="white" stroke="#263238" stroke-miterlimit="10"/>
<path d="M220.214 225.757H209.252V236.721H220.214V225.757Z" fill="white" stroke="#263238" stroke-miterlimit="10"/>
<path d="M86.2081 172.953H75.2461V183.917H86.2081V172.953Z" fill="white" stroke="#263238" stroke-miterlimit="10"/>
<path d="M100.2 172.953H89.2383V183.917H100.2V172.953Z" fill="white" stroke="#263238" stroke-miterlimit="10"/>
<path d="M114.191 172.953H103.229V183.917H114.191V172.953Z" fill="white" stroke="#263238" stroke-miterlimit="10"/>
<path d="M128.191 172.953H117.229V183.917H128.191V172.953Z" fill="white" stroke="#263238" stroke-miterlimit="10"/>
<path d="M142.185 172.953H131.223V183.917H142.185V172.953Z" fill="white" stroke="#263238" stroke-miterlimit="10"/>
<path d="M156.185 172.953H145.223V183.917H156.185V172.953Z" fill="white" stroke="#263238" stroke-miterlimit="10"/>
<path d="M170.179 172.953H159.217V183.917H170.179V172.953Z" fill="white" stroke="#263238" stroke-miterlimit="10"/>
<path d="M184.173 172.953H173.211V183.917H184.173V172.953Z" fill="white" stroke="#263238" stroke-miterlimit="10"/>
<path d="M198.173 172.953H187.211V183.917H198.173V172.953Z" fill="white" stroke="#263238" stroke-miterlimit="10"/>
<path d="M212.167 172.953H201.205V183.917H212.167V172.953Z" fill="white" stroke="#263238" stroke-miterlimit="10"/>
<path d="M226.157 172.953H215.195V183.917H226.157V172.953Z" fill="white" stroke="#263238" stroke-miterlimit="10"/>
<path d="M240.157 172.953H229.195V183.917H240.157V172.953Z" fill="white" stroke="#263238" stroke-miterlimit="10"/>
<path d="M254.151 172.953H243.189V183.917H254.151V172.953Z" fill="white" stroke="#263238" stroke-miterlimit="10"/>
<path d="M66.1612 225.757H52.8809V236.721H66.1612V225.757Z" fill="white" stroke="#263238" stroke-miterlimit="10"/>
<path d="M48.4805 167.493L52.8799 166.024H256.166L259.059 167.475L48.4805 167.493Z" fill="#263238"/>
<path d="M232.848 272.572L232.957 232.211C233.395 230.586 233.751 224.597 234.682 220.425C236.27 213.432 230.027 204.997 229.589 204.723C227.837 203.627 224.113 203.646 224.113 203.646C224.113 203.646 220.462 199.483 217.203 198.168C214.964 197.373 212.577 197.077 210.212 197.301C207.703 195.228 204.904 193.534 201.906 192.27C200.732 191.827 199.459 191.715 198.225 191.946C196.992 192.178 195.847 192.745 194.914 193.585L190.807 199.976C190.207 200.882 189.935 201.967 190.036 203.05C190.137 204.133 190.606 205.148 191.364 205.928C193.317 207.845 195.818 206.95 197.077 206.95C198.821 206.95 199.478 204.978 199.478 204.978C199.478 204.978 199.907 215.249 199.478 216.564C199.031 217.869 195.763 220.927 195.763 220.927L184.81 206.476C181.05 201.373 177.76 195.94 174.98 190.244C174.663 189.549 174.248 188.903 173.748 188.327C171.831 186.163 167.733 185.524 166.665 189.541C166.402 190.826 166.462 192.155 166.838 193.412C171.402 206.905 177.225 217.102 182.528 227.729C185.677 234.037 184.509 233.964 186.079 236.812C185.896 236.94 185.987 237.178 185.787 237.296C185.02 240.364 184.481 243.44 183.706 246.508C183.063 242.657 181.886 238.914 180.21 235.388C180.652 233.252 180.815 231.067 180.694 228.888C180.557 226.687 179.576 224.623 177.955 223.128C177.048 222.393 175.935 221.96 174.77 221.886C173.936 221.831 173.112 222.093 172.462 222.62C171.812 223.146 171.385 223.898 171.265 224.725C171.083 226.395 170.778 228.049 170.352 229.673C169.654 231.794 168.813 233.865 167.833 235.872C167.833 239.953 170.352 239.286 172.187 255.664C173.611 268.445 190.04 276.854 198.985 286.065L209.578 317.364C222.907 311.092 228.395 307.956 239.763 299.331L232.848 272.572Z" fill="white"/>
<path d="M178.185 250.479C178.295 250.278 178.386 250.077 178.477 249.867C178.38 249.936 178.302 250.028 178.251 250.135C178.2 250.242 178.177 250.361 178.185 250.479Z" fill="#92E3A9"/>
<path d="M204.499 194.005C203.246 193.026 201.757 192.396 200.182 192.179L204.499 194.005Z" fill="#92E3A9"/>
<path d="M199.637 198.278L199.691 198.734C199.723 198.58 199.704 198.42 199.637 198.278Z" fill="#92E3A9"/>
<g opacity="0.5">
<path opacity="0.5" d="M178.185 250.479C178.295 250.278 178.386 250.077 178.477 249.867C178.38 249.936 178.302 250.028 178.251 250.135C178.2 250.242 178.177 250.361 178.185 250.479Z" fill="white"/>
<path opacity="0.5" d="M204.499 194.005C203.246 193.026 201.757 192.396 200.182 192.179L204.499 194.005Z" fill="white"/>
<path opacity="0.5" d="M199.633 198.278L199.688 198.734C199.72 198.58 199.7 198.42 199.633 198.278Z" fill="white"/>
<path opacity="0.5" d="M204.661 237.871C204.251 236.849 202.261 233.909 201.102 235.945L204.661 237.871Z" fill="white"/>
</g>
<path d="M170.727 232.96C169.666 233.796 168.761 234.813 168.053 235.963L170.727 232.96Z" fill="white"/>
<path d="M209.579 317.364L199.077 286.038C190.132 276.826 173.703 268.4 172.279 255.637C170.453 239.259 167.925 239.926 167.925 235.845C168.905 233.838 169.746 231.767 170.444 229.646C170.87 228.021 171.175 226.367 171.357 224.698C171.477 223.87 171.904 223.118 172.554 222.592C173.203 222.066 174.028 221.804 174.862 221.859C176.027 221.932 177.14 222.366 178.047 223.1C179.668 224.596 180.648 226.66 180.785 228.861C180.907 231.039 180.744 233.224 180.302 235.361C181.978 238.887 183.155 242.629 183.797 246.48C184.573 243.413 185.112 240.336 185.879 237.269C186.079 237.15 185.988 236.913 186.171 236.785C184.601 233.937 185.769 234.046 182.62 227.701C177.317 217.075 171.503 206.877 166.93 193.384C166.554 192.128 166.494 190.798 166.757 189.513C167.824 185.497 171.923 186.136 173.839 188.299C174.34 188.876 174.755 189.522 175.072 190.216C177.852 195.913 181.142 201.346 184.902 206.448L195.855 220.9C195.855 220.9 199.122 217.842 199.57 216.536C199.999 215.222 199.57 204.951 199.57 204.951C199.57 204.951 198.912 206.923 197.169 206.923C195.91 206.923 193.409 207.836 191.455 205.901C190.69 205.134 190.209 204.129 190.091 203.052C189.973 201.975 190.226 200.89 190.807 199.976L194.887 193.585C195.82 192.745 196.965 192.178 198.199 191.947C199.432 191.715 200.705 191.827 201.879 192.27C204.878 193.534 207.676 195.228 210.185 197.301C212.551 197.077 214.937 197.373 217.176 198.168C220.462 199.492 224.086 203.646 224.086 203.646C224.086 203.646 227.801 203.646 229.562 204.723C230 204.997 236.244 213.432 234.655 220.425C233.743 224.597 233.368 230.586 232.93 232.211L232.821 272.572L240.156 299.331" stroke="#263238" stroke-miterlimit="10"/>
<path d="M211.217 198.725C212.824 204.679 213.658 210.816 213.699 216.983C213.648 218.017 213.758 219.052 214.028 220.051C214.17 220.548 214.436 221 214.802 221.364C215.168 221.729 215.621 221.993 216.118 222.132" stroke="#263238" stroke-miterlimit="10"/>
<path d="M224.121 204.723C226.859 210.438 224.057 223.201 224.258 224.104C224.344 224.559 224.526 224.989 224.792 225.367C225.058 225.745 225.402 226.061 225.801 226.295" stroke="#263238" stroke-miterlimit="10"/>
<path d="M200.591 197.94C200.272 199.766 200.007 201.865 199.678 203.682C198.616 202.768 197.746 201.651 197.119 200.397C196.493 199.143 196.121 197.777 196.027 196.379" stroke="#263238" stroke-miterlimit="10"/>
<path d="M183.102 246.654L181.131 247.521" stroke="#263238" stroke-miterlimit="10"/>
<path d="M183.605 248.233C183.29 249.757 183.29 251.329 183.605 252.853" stroke="#263238" stroke-miterlimit="10"/>
<path d="M195.145 231.17L197.326 235.105" stroke="#263238" stroke-miterlimit="10"/>
<path d="M199.342 216.774L201.514 213.706" stroke="#263238" stroke-miterlimit="10"/>
<path d="M229.888 231.17L229.23 233.581" stroke="#263238" stroke-miterlimit="10"/>
<path d="M224.58 224.625C225.189 222.58 225.831 220.535 226.506 218.49" stroke="#263238" stroke-miterlimit="10"/>
<path d="M230.967 213.715C231.544 213.413 232.218 213.351 232.841 213.545C233.464 213.738 233.984 214.17 234.289 214.747" stroke="#263238" stroke-miterlimit="10"/>
<path d="M217.887 203.235C218.644 203.022 219.443 203.003 220.21 203.178C220.977 203.353 221.687 203.718 222.277 204.239" stroke="#263238" stroke-miterlimit="10"/>
<path d="M177.232 209.324C177.941 208.547 178.823 207.949 179.806 207.578C180.789 207.206 181.847 207.073 182.891 207.188" stroke="#263238" stroke-miterlimit="10"/>
<path d="M168.992 192.106C169.645 191.635 170.384 191.298 171.167 191.113C171.95 190.928 172.762 190.9 173.556 191.029" stroke="#263238" stroke-miterlimit="10"/>
<path d="M170.727 232.96C169.666 233.796 168.761 234.813 168.053 235.963" stroke="#263238" stroke-miterlimit="10"/>
<path d="M171.566 228.806C173.009 227.783 175.309 230.084 176.632 228.906C176.867 228.642 177.031 228.323 177.109 227.978C177.187 227.633 177.177 227.274 177.079 226.934C176.884 226.255 176.795 225.55 176.815 224.844" stroke="#263238" stroke-miterlimit="10"/>
<path d="M212.268 222.479C214.024 226.126 214.381 230.291 213.272 234.183" stroke="#263238" stroke-miterlimit="10"/>
<path d="M222.872 228.112C223.156 229.838 222.833 231.609 221.959 233.124" stroke="#263238" stroke-miterlimit="10"/>
<path d="M131.137 227.599C130.744 225.774 128.179 226.057 128.179 226.057C119.554 226.559 118.395 240.079 118.395 240.079L115.301 249.346L114.388 235.414L114.479 217.457C114.479 217.457 117.089 200.275 115.93 197.582C115.666 196.839 115.184 196.193 114.547 195.728C113.911 195.262 113.149 194.999 112.361 194.971C107.341 193.711 107.049 200.951 107.049 200.951L102.814 215.722L101.025 231.653L99.5831 230.877C99.5831 230.877 98.8986 213.979 99.1906 213.696C99.4827 213.413 101.217 202.01 101.217 202.01C101.217 202.01 102.13 199.892 103.344 197.19C103.687 196.431 103.864 195.608 103.864 194.775C103.864 193.942 103.687 193.119 103.344 192.36C101.308 188.206 97.0731 190.142 96.1969 192.36C95.1682 194.613 94.0101 196.805 92.7284 198.924L87.8909 212.153C88.0735 215.147 86.3575 229.909 86.3575 229.909L84.6142 229.124L81.8121 220.451L83.9479 211.568C83.9479 211.568 88.612 206.456 87.7996 203.443C86.9873 200.431 83.0716 201.325 83.0716 201.325L75.1673 210.774H72.8398L67.3634 217.731C64.8774 225.192 64.433 233.183 66.0764 240.874L67.336 246.744V284.694C67.336 284.694 63.5846 290.774 63.5846 291.35C63.5846 291.614 60.0343 298.056 57.8711 304.036C67.2967 310.199 77.4716 315.404 89.6239 320.5C93.0831 310.759 98.9807 297.448 101.217 295.019C105.653 290.19 114.342 280.924 114.342 280.924C114.342 280.924 124.209 265.066 125.368 259.789C126.281 255.462 128.636 247.611 129.439 244.918C129.625 244.306 129.7 243.666 129.658 243.028C129.594 241.604 129.457 238.838 129.457 236.4C129.457 232.876 131.511 229.398 131.137 227.599Z" fill="white"/>
<path d="M57.8711 304.036C60.6152 297.763 64.4654 289.014 64.4654 288.749C64.4654 288.174 68.2168 282.094 68.2168 282.094V244.152L66.9572 238.319C65.315 230.648 65.7498 222.677 68.2168 215.231L73.6933 208.274H76.0207L83.9251 198.825C83.9251 198.825 87.8864 197.912 88.6531 200.943C89.4198 203.974 84.8013 209.05 84.8013 209.05L82.6655 217.933L85.4676 226.606L87.2109 227.391C87.2109 227.391 88.9269 212.629 88.7444 209.634L93.5819 196.406C94.8635 194.287 96.0216 192.095 97.0503 189.842C97.963 187.624 102.162 185.688 104.197 189.842C104.54 190.601 104.717 191.424 104.717 192.257C104.717 193.09 104.54 193.913 104.197 194.671C103.029 197.41 102.07 199.492 102.07 199.492C102.07 199.492 100.336 210.885 100.044 211.177C99.752 211.469 100.437 228.359 100.437 228.359L101.879 229.135L103.622 213.204L107.857 198.433C107.857 198.433 108.149 191.193 113.169 192.453C113.957 192.48 114.719 192.744 115.355 193.21C115.992 193.675 116.473 194.321 116.738 195.064C117.897 197.757 115.287 214.939 115.287 214.939L115.196 232.896L116.108 246.827L119.203 237.561C119.203 237.561 120.362 224.04 128.987 223.538C128.987 223.538 131.552 223.274 131.944 225.081C132.337 226.889 130.265 230.358 130.265 233.836C130.265 236.274 130.402 239.04 130.466 240.464C130.507 241.102 130.433 241.742 130.247 242.354C129.443 245.047 127.134 252.898 126.176 257.226C125.017 262.502 115.15 278.36 115.15 278.36C115.15 278.36 106.461 287.626 102.025 292.456C99.7885 294.884 93.0832 310.759 89.6239 320.5" stroke="#263238" stroke-miterlimit="10"/>
<path d="M87.0826 228.788C87.325 229.695 87.3324 230.648 87.1041 231.559C86.8757 232.469 86.4191 233.307 85.7773 233.991" fill="white"/>
<path d="M87.0826 228.788C87.325 229.695 87.3324 230.648 87.1041 231.559C86.8757 232.469 86.4191 233.307 85.7773 233.991" stroke="#263238" stroke-miterlimit="10"/>
<path d="M72.3574 241.551C73.6079 239.606 74.8309 236.94 74.4932 234.658C73.8361 230.175 71.755 225.017 72.7134 220.58C73.2975 217.75 73.8908 214.911 74.475 212.081" fill="white"/>
<path d="M72.3574 241.551C73.6079 239.606 74.8309 236.94 74.4932 234.658C73.8361 230.175 71.755 225.017 72.7134 220.58C73.2975 217.75 73.8908 214.911 74.475 212.081" stroke="#263238" stroke-miterlimit="10"/>
<path d="M108.752 199.209C110.248 198.814 111.82 198.814 113.316 199.209C113.316 198.789 113.316 198.369 113.316 197.94" stroke="#263238" stroke-miterlimit="10"/>
<path d="M96.791 193.503C97.2309 193.806 97.7456 193.982 98.279 194.013C98.8123 194.043 99.3437 193.926 99.8149 193.674C100.286 193.422 100.679 193.046 100.951 192.586C101.222 192.126 101.362 191.6 101.355 191.065" stroke="#263238" stroke-miterlimit="10"/>
<path d="M129.756 225.2C128.494 225.525 127.385 226.28 126.62 227.335C125.855 228.39 125.483 229.678 125.566 230.979L127.802 231.645" stroke="#263238" stroke-miterlimit="10"/>
<path d="M100.379 226.314C100.479 227.847 100.288 231.508 100.379 233.033V226.314Z" fill="white"/>
<path d="M100.379 226.314C100.479 227.847 100.288 231.508 100.379 233.033" stroke="#263238" stroke-miterlimit="10"/>
<path d="M102.061 228.432C101.878 230.945 101.693 233.456 101.504 235.963C101.504 235.644 101.504 235.324 101.504 235.005" fill="white"/>
<path d="M102.061 228.432C101.878 230.945 101.693 233.456 101.504 235.963C101.504 235.644 101.504 235.324 101.504 235.005" stroke="#263238" stroke-miterlimit="10"/>
<path d="M115.96 249.593C116.622 252.368 116.319 255.285 115.102 257.865L115.96 249.593Z" fill="white"/>
<path d="M115.96 249.593C116.622 252.368 116.319 255.285 115.102 257.865" stroke="#263238" stroke-miterlimit="10"/>
<path d="M92.8529 236.438C90.8631 238.62 91.1552 243.851 92.5608 246.736" stroke="#263238" stroke-miterlimit="10"/>
<path d="M107.556 240.035C107.568 242.488 106.703 244.864 105.119 246.736" stroke="#263238" stroke-miterlimit="10"/>
<path d="M78.3574 237.479C78.0267 239.703 78.5096 241.972 79.7174 243.869" stroke="#263238" stroke-miterlimit="10"/>
<path d="M69.8868 244.298C69.7995 246.035 70.2942 247.75 71.2924 249.173" stroke="#263238" stroke-miterlimit="10"/>
<path d="M81.4961 202.203C82.0203 201.964 82.6037 201.886 83.1723 201.979C83.741 202.071 84.2694 202.33 84.6907 202.724L85.8407 201.226" stroke="#263238" stroke-miterlimit="10"/>
<path d="M90.8633 208.913C91.633 208.452 92.5422 208.28 93.4273 208.429C94.3124 208.578 95.1154 209.038 95.6917 209.726" stroke="#263238" stroke-miterlimit="10"/>
<path d="M105.482 213.478C106.303 213.112 107.194 212.932 108.091 212.951C108.989 212.97 109.872 213.187 110.676 213.587" stroke="#263238" stroke-miterlimit="10"/>
<path d="M72.9434 221.137C73.4292 220.325 74.1384 219.669 74.9863 219.248C75.8343 218.827 76.7853 218.659 77.7261 218.764" stroke="#263238" stroke-miterlimit="10"/>
<path d="M66.8184 229.865C66.8478 229.274 67.0784 228.711 67.4719 228.269C67.8654 227.828 68.3981 227.534 68.9816 227.437" stroke="#263238" stroke-miterlimit="10"/>
<path d="M306.725 11.3821L0.5 12.8246L5.1276 5.8863C6.22008 4.2357 7.70311 2.88043 9.44503 1.94081C11.187 1.00118 13.1339 0.506266 15.113 0.500003H292.185C293.978 0.498712 295.749 0.899959 297.366 1.67417C298.984 2.44838 300.407 3.57581 301.531 4.97337L306.725 11.3821Z" fill="white" stroke="#263238" stroke-linecap="round" stroke-linejoin="round"/>
<path d="M158.935 57.2935H142.158C124.944 57.2935 110.988 71.2518 110.988 88.4701V105.25C110.988 122.468 124.944 136.426 142.158 136.426H158.935C176.149 136.426 190.105 122.468 190.105 105.25V88.4701C190.105 71.2518 176.149 57.2935 158.935 57.2935Z" fill="#757575" stroke="#263238" stroke-linecap="round" stroke-linejoin="round"/>
<path d="M125.363 103.552V114.799C125.363 116.494 126.036 118.119 127.235 119.318C128.433 120.516 130.058 121.19 131.752 121.19H170.334C172.021 121.19 173.639 120.523 174.836 119.334C176.033 118.145 176.711 116.532 176.723 114.845C176.778 109.778 177.043 103.552 177.043 103.552H125.363Z" fill="#999999" stroke="#263238" stroke-linecap="round" stroke-linejoin="round"/>
<path d="M266.564 107.304H40.9343C39.7738 107.307 38.6395 106.96 37.6789 106.308C36.7184 105.657 35.9763 104.731 35.5491 103.652L0.746298 14.2853C0.535132 13.745 0.459141 13.1613 0.524934 12.585C0.590728 12.0087 0.796313 11.4571 1.12381 10.9784C1.4513 10.4996 1.89078 10.1082 2.40402 9.83805C2.91726 9.56793 3.48872 9.42733 4.06867 9.42847H303.448C304.024 9.43471 304.59 9.58071 305.097 9.85394C305.604 10.1272 306.038 10.5195 306.36 10.9971C306.682 11.4748 306.884 12.0235 306.947 12.5963C307.011 13.169 306.934 13.7486 306.724 14.2853L271.922 103.625C271.5 104.705 270.764 105.633 269.809 106.289C268.853 106.945 267.723 107.299 266.564 107.304Z" fill="white" stroke="#263238" stroke-linecap="round" stroke-linejoin="round"/>
<path d="M268.243 99.5166H38.7156L7.13477 15.0887H299.677L268.243 99.5166Z" fill="white"/>
<path d="M176.776 107.185H125.607V110.691H176.776V107.185Z" fill="#263238"/>
<path d="M234.719 95.9013H72.6347C71.722 95.9013 70.9005 95.4996 70.7362 94.9884L47.6804 21.7256C47.4248 20.904 48.1459 20.2375 49.2959 20.2375H258.058C259.208 20.2375 259.929 20.904 259.664 21.7256L236.618 94.9884C236.444 95.4905 235.605 95.9013 234.719 95.9013Z" fill="#38BFF2"/>
<path d="M233.095 94.2307H74.2776C73.9798 94.2327 73.6895 94.1375 73.4507 93.9596C73.2119 93.7817 73.0375 93.5307 72.9542 93.2447L54.1882 31.6584C54.1184 31.4485 54.0997 31.2249 54.1337 31.0064C54.1678 30.7878 54.2536 30.5805 54.384 30.4019C54.5144 30.2232 54.6856 30.0783 54.8834 29.9793C55.0811 29.8802 55.2997 29.8299 55.5208 29.8325H251.833C252.054 29.8299 252.273 29.8802 252.471 29.9793C252.668 30.0783 252.84 30.2232 252.97 30.4019C253.1 30.5805 253.186 30.7878 253.22 31.0064C253.254 31.2249 253.236 31.4485 253.166 31.6584L234.418 93.2447C234.333 93.5299 234.159 93.78 233.92 93.9577C233.682 94.1354 233.392 94.2312 233.095 94.2307Z" fill="#263238"/>
<path d="M96.3304 45.8454H65.8722C65.1147 45.8454 64.6218 46.2471 64.7678 46.7583C64.9151 47.0525 65.1464 47.2963 65.4324 47.4588C65.7184 47.6213 66.0462 47.6953 66.3742 47.6713H96.659C97.4074 47.6713 97.9368 47.2696 97.8547 46.7583C97.7725 46.2471 97.0788 45.8454 96.3304 45.8454Z" fill="white"/>
<path d="M97.3396 51.4051H71.4361C70.6967 51.4051 70.213 51.7977 70.3408 52.318C70.4803 52.6085 70.7034 52.8507 70.9815 53.0133C71.2596 53.176 71.58 53.2518 71.9016 53.231H97.7047C98.4441 53.231 98.9643 52.8384 98.8822 52.318C98.8 51.7977 98.079 51.4051 97.3396 51.4051Z" fill="white"/>
<path opacity="0.5" d="M98.3279 56.7732H68.9376C68.2074 56.7732 67.7328 57.1475 67.8606 57.6131C68.0074 57.8919 68.2325 58.1216 68.5082 58.2741C68.7839 58.4266 69.0981 58.4951 69.4123 58.4712H98.62C99.341 58.4712 99.8613 58.0969 99.7791 57.6314C99.697 57.1658 99.0581 56.7732 98.3279 56.7732Z" fill="white"/>
<path d="M99.2767 61.9586H82.0168C81.3048 61.9586 80.812 62.3238 80.9215 62.7711C81.031 63.2185 81.6973 63.5836 82.4093 63.5836H99.5779C100.29 63.5836 100.801 63.2185 100.719 62.7711C100.637 62.3238 99.9978 61.9586 99.2767 61.9586Z" fill="white"/>
<path d="M100.196 66.9614H71.7918C71.0981 66.9614 70.6235 67.3175 70.7513 67.7465C70.8791 68.1756 71.5362 68.5317 72.239 68.5317H100.534C101.228 68.5317 101.73 68.1848 101.657 67.7465C101.584 67.3083 100.899 66.9614 100.196 66.9614Z" fill="white"/>
<path d="M101.084 71.8092H78.1555C77.4618 71.8092 76.9963 72.147 77.1058 72.5669C77.2153 72.9869 77.8634 73.3247 78.5479 73.3247H101.366C102.051 73.3247 102.544 72.9869 102.471 72.5669C102.398 72.147 101.777 71.8092 101.084 71.8092Z" fill="white"/>
<path d="M101.943 76.4924H79.3894C78.7049 76.4924 78.2485 76.821 78.358 77.2227C78.4675 77.6244 79.0973 77.9622 79.7728 77.9622H102.217C102.892 77.9622 103.376 77.6335 103.303 77.2227C103.23 76.8119 102.628 76.4924 101.943 76.4924Z" fill="white"/>
<path d="M102.773 81.0206H78.129C77.4627 81.0206 77.0063 81.3401 77.1158 81.7327C77.2254 82.1252 77.846 82.4447 78.5123 82.4447H103.001C103.667 82.4447 104.151 82.1252 104.078 81.7327C104.005 81.3401 103.448 81.0206 102.773 81.0206Z" fill="white"/>
<path opacity="0.5" d="M103.585 85.4118H87.6667C87.0095 85.4118 86.5532 85.7222 86.6444 86.1056C86.7357 86.4891 87.3472 86.7903 87.9953 86.7903H103.813C104.47 86.7903 104.945 86.4799 104.881 86.1056C104.817 85.7313 104.242 85.4118 103.585 85.4118Z" fill="white"/>
<path opacity="0.5" d="M95.2712 40.0756H72.5713C71.8046 40.0756 71.2935 40.4956 71.4304 40.9886C71.5773 41.285 71.8099 41.5306 72.0979 41.6933C72.386 41.8561 72.7162 41.9286 73.0459 41.9015H95.6089C96.3756 41.9015 96.9141 41.4815 96.8228 40.9886C96.6958 40.6905 96.4765 40.4409 96.1973 40.2766C95.918 40.1123 95.5934 40.0419 95.2712 40.0756Z" fill="white"/>
<path d="M94.1649 34.0959H62.5658C61.79 34.0959 61.2789 34.525 61.434 35.0636C61.5868 35.373 61.8279 35.6301 62.1269 35.8024C62.4259 35.9747 62.7692 36.0543 63.1135 36.0313H94.53C95.2967 36.0313 95.8535 35.6022 95.7531 35.0636C95.6527 34.525 94.9681 34.0959 94.1649 34.0959Z" fill="white"/>
<path d="M104.362 89.666H78.1759C77.5278 89.666 77.0897 89.9673 77.1901 90.3325C77.2905 90.6976 77.902 90.9989 78.5501 90.9989H104.609C105.248 90.9989 105.722 90.6976 105.658 90.3325C105.595 89.9673 105.01 89.666 104.362 89.666Z" fill="white"/>
<path opacity="0.5" d="M107.027 47.872H112.933L112.641 45.6171H106.689L107.027 47.872Z" fill="white"/>
<path opacity="0.5" d="M107.848 53.3587H113.653L113.37 51.1859H107.52L107.848 53.3587Z" fill="white"/>
<path opacity="0.5" d="M108.644 58.6629H114.349L114.075 56.5632H108.334L108.644 58.6629Z" fill="white"/>
<path opacity="0.5" d="M109.416 63.7845H115.02L114.746 61.7487H109.105L109.416 63.7845Z" fill="white"/>
<path opacity="0.5" d="M110.157 68.7233H115.67L115.406 66.7697H109.865L110.157 68.7233Z" fill="white"/>
<path opacity="0.5" d="M110.878 73.5071H116.291L116.044 71.6174H110.586L110.878 73.5071Z" fill="white"/>
<path opacity="0.5" d="M111.569 78.1448H116.899L116.662 76.3007H111.295L111.569 78.1448Z" fill="white"/>
<path opacity="0.5" d="M112.237 82.6181H117.486L117.257 80.847H111.973L112.237 82.6181Z" fill="white"/>
<path opacity="0.5" d="M112.892 86.9638H118.058L117.83 85.2383H112.637L112.892 86.9638Z" fill="white"/>
<path opacity="0.5" d="M106.167 42.1844H112.182L111.881 39.8382H105.82L106.167 42.1844Z" fill="white"/>
<path opacity="0.5" d="M105.281 36.2778H111.406L111.095 33.8494H104.916L105.281 36.2778Z" fill="white"/>
<path opacity="0.5" d="M113.524 91.1632H118.608L118.389 89.4926H113.277L113.524 91.1632Z" fill="white"/>
<path d="M144.658 81.7327C144.658 81.3401 145.169 81.0206 145.836 81.0206H233.294C233.961 81.0206 234.417 81.3401 234.298 81.7327C234.155 81.9718 233.947 82.1656 233.698 82.2916C233.45 82.4176 233.17 82.4707 232.893 82.4447H145.881C145.215 82.4447 144.667 82.1252 144.658 81.7327Z" fill="white"/>
<path d="M234.179 77.9622H185.749C185.074 77.9622 184.563 77.6335 184.608 77.2227C184.654 76.8119 185.238 76.4924 185.923 76.4924H234.617C235.293 76.4924 235.749 76.821 235.631 77.2227C235.487 77.4737 235.273 77.6774 235.015 77.8087C234.757 77.9401 234.467 77.9934 234.179 77.9622Z" fill="white"/>
<path opacity="0.5" d="M174.257 77.9622H159.196C158.521 77.9622 157.973 77.6335 157.983 77.2227C157.992 76.8119 158.539 76.4924 159.224 76.4924H174.375C175.051 76.4924 175.58 76.821 175.544 77.2227C175.507 77.6244 174.932 77.9622 174.257 77.9622Z" fill="white"/>
<path d="M205.693 73.3247H137.384C136.699 73.3247 136.124 72.9869 136.097 72.5669C136.069 72.147 136.608 71.8092 137.302 71.8092H205.976C206.661 71.8092 207.163 72.147 207.081 72.5669C206.998 72.9869 206.387 73.3247 205.693 73.3247Z" fill="white"/>
<path opacity="0.5" d="M123.109 71.8092H127.974C128.658 71.8092 129.251 72.147 129.288 72.5669C129.324 72.9869 128.795 73.3247 128.11 73.3247H123.264C122.579 73.3247 121.986 72.9869 121.94 72.5669C121.895 72.147 122.415 71.8092 123.109 71.8092Z" fill="white"/>
<path d="M215.577 67.7465C215.486 68.1848 214.847 68.5317 214.144 68.5317H149.778C149.075 68.5317 148.509 68.1848 148.5 67.7465C148.491 67.3083 149.057 66.9614 149.751 66.9614H214.473C215.176 66.9614 215.669 67.3175 215.577 67.7465Z" fill="white"/>
<path d="M122.589 66.9614H140.844C141.546 66.9614 142.131 67.3175 142.149 67.7465C142.167 68.1756 141.61 68.5317 140.917 68.5317H122.753C122.059 68.5317 121.457 68.1848 121.402 67.7465C121.348 67.3083 121.886 66.9614 122.589 66.9614Z" fill="white"/>
<path d="M122.048 61.9586H192.274C192.986 61.9586 193.516 62.3238 193.452 62.7711C193.388 63.2185 192.767 63.5836 192.055 63.5836H122.221C121.519 63.5836 120.898 63.2185 120.852 62.7711C120.807 62.3238 121.336 61.9586 122.048 61.9586Z" fill="white"/>
<path d="M167.642 58.4711C166.921 58.4711 166.355 58.0968 166.373 57.6312C166.392 57.1656 166.994 56.7913 167.724 56.7913H204.772C205.503 56.7913 206.023 57.1656 205.941 57.6312C205.859 58.0968 205.211 58.4711 204.49 58.4711H167.642Z" fill="white"/>
<path d="M121.504 56.7732H153.569C154.299 56.7732 154.883 57.1475 154.883 57.6131C154.883 58.0787 154.299 58.4712 153.569 58.4712H121.687C120.957 58.4712 120.336 58.0969 120.281 57.6314C120.226 57.1658 120.774 56.7732 121.504 56.7732Z" fill="white"/>
<path d="M241.297 53.1488H153.026C152.296 53.1488 151.693 52.7562 151.693 52.2359C151.693 51.7155 152.287 51.3229 153.026 51.3229H241.79C242.529 51.3229 243.013 51.7155 242.876 52.2359C242.732 52.5263 242.505 52.7677 242.224 52.93C241.943 53.0924 241.621 53.1685 241.297 53.1488Z" fill="white"/>
<path d="M242.833 47.6439H165.25C164.501 47.6439 163.908 47.2422 163.926 46.7309C163.944 46.2197 164.565 45.818 165.323 45.818H243.435C244.184 45.818 244.676 46.2197 244.53 46.7309C244.375 47.039 244.129 47.2919 243.825 47.4552C243.522 47.6186 243.175 47.6844 242.833 47.6439Z" fill="white"/>
<path opacity="0.5" d="M244.509 41.9471H228.226C227.459 41.9471 226.939 41.5271 227.058 41.0342C227.2 40.736 227.43 40.4886 227.718 40.3253C228.005 40.1621 228.335 40.0909 228.664 40.1212H245.021C245.787 40.1212 246.289 40.5412 246.134 41.0342C245.98 41.3267 245.745 41.5685 245.456 41.7304C245.168 41.8924 244.839 41.9676 244.509 41.9471Z" fill="white"/>
<path d="M216.865 41.9471H157.145C156.387 41.9471 155.766 41.5271 155.775 41.0341C155.785 40.5412 156.396 40.1212 157.163 40.1212H217.276C218.043 40.1212 218.581 40.5412 218.472 41.0341C218.335 41.3367 218.106 41.588 217.817 41.752C217.528 41.916 217.195 41.9843 216.865 41.9471Z" fill="white"/>
<path d="M124.55 85.4118H179.707C180.364 85.4118 180.866 85.7222 180.82 86.1056C180.775 86.4891 180.227 86.7903 179.57 86.7903H124.705C124.048 86.7903 123.482 86.4799 123.445 86.1056C123.409 85.7313 123.893 85.4118 124.55 85.4118Z" fill="white"/>
<path d="M125.005 89.666H209.744C210.383 89.666 210.849 89.9673 210.767 90.3325C210.684 90.6976 210.109 90.9989 209.461 90.9989H125.151C124.503 90.9989 123.947 90.6976 123.91 90.3325C123.874 89.9673 124.357 89.666 125.005 89.666Z" fill="white"/>
<path d="M213.899 36.0313H170.727C169.951 36.0313 169.349 35.6022 169.376 35.0636C169.403 34.525 170.051 34.0959 170.836 34.0959H214.264C215.049 34.0959 215.597 34.525 215.497 35.0636C215.368 35.3738 215.144 35.6349 214.856 35.8089C214.569 35.983 214.234 36.0609 213.899 36.0313Z" fill="white"/>
<path opacity="0.5" d="M158.53 36.0313H119.282C118.506 36.0313 117.83 35.6022 117.766 35.0636C117.703 34.525 118.287 34.0959 119.072 34.0959H158.548C159.324 34.0959 159.953 34.525 159.944 35.0636C159.935 35.6022 159.305 36.0313 158.53 36.0313Z" fill="white"/>
<path opacity="0.5" d="M191.937 85.4118C192.594 85.4118 193.087 85.7222 193.032 86.1056C192.978 86.4891 192.403 86.7903 191.745 86.7903H187.483C186.835 86.7903 186.342 86.4799 186.388 86.1056C186.433 85.7313 186.999 85.4118 187.656 85.4118H191.937Z" fill="white"/>
<path opacity="0.5" d="M139.63 81.7327C139.63 82.1252 139.128 82.4447 138.462 82.4447H132.657C131.991 82.4447 131.425 82.1252 131.398 81.7327C131.37 81.3401 131.881 81.0206 132.548 81.0206H138.38C139.055 81.0206 139.612 81.3401 139.63 81.7327Z" fill="white"/>
<path opacity="0.5" d="M209.679 62.7711C209.597 63.2185 208.958 63.5836 208.246 63.5836H201.456C200.744 63.5836 200.233 63.2185 200.296 62.7711C200.36 62.3238 201.008 61.9586 201.72 61.9586H208.548C209.26 61.9586 209.771 62.3238 209.679 62.7711Z" fill="white"/>
<path opacity="0.5" d="M230.869 66.9614C231.572 66.9614 232.046 67.3174 231.928 67.7465C231.787 68.0075 231.573 68.2212 231.311 68.3608C231.05 68.5005 230.753 68.5599 230.458 68.5316H225.045C224.343 68.5316 223.868 68.1847 223.968 67.7465C224.107 67.4855 224.319 67.2714 224.579 67.1316C224.839 66.9918 225.135 66.9326 225.429 66.9614H230.869Z" fill="white"/>
<path opacity="0.5" d="M142.339 53.1488C141.609 53.1488 140.997 52.7562 140.97 52.2359C140.942 51.7155 141.536 51.3229 142.275 51.3229H148.034C148.774 51.3229 149.376 51.7155 149.385 52.2359C149.394 52.7562 148.801 53.1488 148.071 53.1488H142.339Z" fill="white"/>
<path d="M63.9349 25.0396C64.063 25.3449 64.111 25.6778 64.0745 26.0069C64.0379 26.3359 63.918 26.6502 63.7261 26.9199C63.5341 27.1896 63.2765 27.4058 62.9776 27.5481C62.6787 27.6904 62.3484 27.7539 62.0181 27.7328C61.2206 27.6863 60.4544 27.4062 59.815 26.9273C59.1755 26.4484 58.691 25.7919 58.4219 25.0396C58.287 24.7336 58.2329 24.3981 58.2648 24.0651C58.2966 23.7322 58.4134 23.413 58.6039 23.1382C58.7945 22.8633 59.0523 22.642 59.3529 22.4954C59.6534 22.3488 59.9866 22.2818 60.3204 22.3008C61.1279 22.3425 61.9043 22.6259 62.5488 23.1143C63.1933 23.6026 63.6762 24.2734 63.9349 25.0396Z" fill="white"/>
<path d="M71.329 25.0853C71.4437 25.3979 71.4786 25.7342 71.4304 26.0637C71.3822 26.3933 71.2524 26.7055 71.0529 26.9721C70.8535 27.2388 70.5906 27.4514 70.2881 27.5906C69.9856 27.7298 69.6532 27.7912 69.3209 27.7693C68.5336 27.73 67.7767 27.4523 67.1508 26.973C66.5248 26.4936 66.0593 25.8353 65.816 25.0853C65.6953 24.7712 65.655 24.4319 65.6988 24.0983C65.7427 23.7647 65.8692 23.4474 66.067 23.1752C66.2647 22.903 66.5274 22.6846 66.8311 22.5398C67.1348 22.3951 67.4699 22.3286 67.8058 22.3465C68.6039 22.3834 69.3709 22.6665 70.0017 23.1569C70.6326 23.6472 71.0962 24.3208 71.329 25.0853Z" fill="white"/>
<path d="M78.8405 25.0396C78.9428 25.3624 78.9645 25.7054 78.9036 26.0385C78.8428 26.3716 78.7012 26.6847 78.4914 26.9504C78.2815 27.2162 78.0098 27.4264 77.6999 27.5628C77.39 27.6992 77.0514 27.7575 76.7138 27.7328C75.9336 27.6972 75.1842 27.4184 74.5704 26.9355C73.9566 26.4525 73.5092 25.7896 73.291 25.0396C73.1835 24.718 73.1562 24.3751 73.2114 24.0405C73.2666 23.706 73.4027 23.39 73.6078 23.12C73.8129 22.8501 74.0809 22.6343 74.3883 22.4916C74.6958 22.3488 75.0335 22.2833 75.3721 22.3008C76.1676 22.3243 76.9344 22.6033 77.5591 23.0965C78.1837 23.5898 78.633 24.2711 78.8405 25.0396Z" fill="white"/>
<path d="M72.413 136.162H53.1633C51.9529 136.162 50.7921 136.643 49.9363 137.499C49.0804 138.355 48.5996 139.516 48.5996 140.726V150.102C48.5996 151.313 49.0804 152.474 49.9363 153.33C50.7921 154.186 51.9529 154.667 53.1633 154.667H58.1925L62.0078 163.312L67.3838 154.667H72.413C73.6234 154.667 74.7842 154.186 75.64 153.33C76.4959 152.474 76.9767 151.313 76.9767 150.102V140.69C76.9671 139.486 76.482 138.334 75.6272 137.486C74.7724 136.638 73.6171 136.162 72.413 136.162Z" fill="white" stroke="#263238" stroke-linecap="round" stroke-linejoin="round"/>
<path d="M60.1133 141.548C60.1133 141.306 60.2094 141.074 60.3806 140.902C60.5518 140.731 60.7839 140.635 61.026 140.635C61.2574 140.634 61.4804 140.722 61.6499 140.879C61.8193 141.037 61.9226 141.253 61.9388 141.484C61.9388 141.726 61.8426 141.958 61.6714 142.13C61.5003 142.301 61.2681 142.397 61.026 142.397C60.7946 142.398 60.5716 142.31 60.4022 142.153C60.2327 141.995 60.1295 141.779 60.1133 141.548ZM60.3141 143.456H61.7836V149.719H60.2867L60.3141 143.456Z" fill="#263238"/>
<path d="M65.3153 143.109V143.483H67.0404V144.661H65.37V149.7H63.937V144.661H62.8691V143.483H63.937V143.082C63.9137 142.785 63.9561 142.487 64.0613 142.209C64.1664 141.931 64.3318 141.68 64.5455 141.473C64.7592 141.266 65.0159 141.109 65.2973 141.013C65.5787 140.917 65.8778 140.885 66.1733 140.918C66.6413 140.894 67.1056 141.012 67.5059 141.256L67.0951 142.361C66.856 142.196 66.573 142.107 66.2828 142.105C65.6347 142.105 65.3153 142.461 65.3153 143.109Z" fill="#263238"/>
<path d="M131.033 137.476H111.775C110.564 137.476 109.403 137.957 108.548 138.813C107.692 139.669 107.211 140.83 107.211 142.041V151.408C107.211 152.618 107.692 153.779 108.548 154.635C109.403 155.491 110.564 155.972 111.775 155.972H116.813L120.619 164.618L125.995 155.972H131.033C132.244 155.972 133.405 155.491 134.261 154.635C135.116 153.779 135.597 152.618 135.597 151.408V142.004C135.588 140.8 135.102 139.649 134.248 138.8C133.393 137.952 132.238 137.476 131.033 137.476Z" fill="white" stroke="#263238" stroke-linecap="round" stroke-linejoin="round"/>
<path d="M115.825 148.349H110.905C111.002 148.806 111.262 149.211 111.637 149.489C112.012 149.766 112.476 149.897 112.941 149.856C113.256 149.867 113.57 149.812 113.862 149.694C114.155 149.576 114.419 149.398 114.638 149.171L115.423 150.084C114.949 150.555 114.351 150.881 113.698 151.025C113.045 151.168 112.364 151.121 111.737 150.891C111.109 150.661 110.56 150.257 110.154 149.726C109.748 149.195 109.502 148.559 109.445 147.893C109.432 147.466 109.507 147.041 109.665 146.645C109.823 146.249 110.061 145.889 110.364 145.589C110.667 145.288 111.029 145.053 111.427 144.898C111.824 144.743 112.249 144.672 112.676 144.688C113.103 144.671 113.529 144.743 113.926 144.901C114.323 145.059 114.682 145.298 114.981 145.604C115.279 145.909 115.511 146.274 115.659 146.675C115.808 147.075 115.87 147.503 115.843 147.929C115.843 148.03 115.834 148.212 115.825 148.349ZM110.896 147.382H114.447C114.403 146.948 114.195 146.548 113.866 146.263C113.537 145.978 113.111 145.829 112.676 145.848C112.24 145.831 111.815 145.98 111.485 146.265C111.154 146.549 110.944 146.948 110.896 147.382Z" fill="#263238"/>
<path d="M117.247 142.315H118.698V151.015H117.229L117.247 142.315Z" fill="#263238"/>
<path d="M119.926 150.394L120.483 149.281C121.139 149.683 121.894 149.898 122.664 149.901C123.577 149.901 123.978 149.646 123.978 149.207C123.978 148.012 120.108 149.134 120.108 146.642C120.108 145.455 121.176 144.679 122.847 144.679C123.661 144.666 124.465 144.851 125.192 145.218L124.626 146.332C124.073 146.01 123.441 145.849 122.801 145.866C121.888 145.866 121.487 146.158 121.487 146.569C121.487 147.838 125.357 146.706 125.357 149.162C125.357 150.33 124.28 151.097 122.518 151.097C121.606 151.103 120.71 150.86 119.926 150.394Z" fill="#263238"/>
<path d="M132.538 148.349H127.618C127.714 148.806 127.975 149.211 128.35 149.489C128.725 149.766 129.189 149.897 129.653 149.856C129.969 149.867 130.283 149.812 130.575 149.694C130.868 149.576 131.132 149.398 131.351 149.171L132.136 150.084C131.662 150.555 131.063 150.881 130.41 151.025C129.758 151.168 129.077 151.121 128.45 150.891C127.822 150.661 127.273 150.257 126.867 149.726C126.461 149.195 126.215 148.559 126.158 147.893C126.145 147.466 126.22 147.041 126.378 146.645C126.536 146.249 126.774 145.889 127.077 145.589C127.38 145.288 127.742 145.053 128.139 144.898C128.537 144.743 128.962 144.672 129.389 144.688C129.816 144.671 130.241 144.743 130.638 144.901C131.036 145.059 131.395 145.298 131.694 145.604C131.992 145.909 132.223 146.274 132.372 146.675C132.52 147.075 132.583 147.503 132.556 147.929C132.556 148.03 132.547 148.212 132.538 148.349ZM127.609 147.382H131.159C131.116 146.948 130.908 146.548 130.579 146.263C130.25 145.978 129.824 145.829 129.389 145.848C128.953 145.831 128.528 145.98 128.197 146.265C127.867 146.549 127.657 146.948 127.609 147.382Z" fill="#263238"/>
<path d="M187.858 136.919H168.599C167.388 136.919 166.228 137.4 165.372 138.256C164.516 139.112 164.035 140.273 164.035 141.484V150.86C164.035 152.07 164.516 153.232 165.372 154.088C166.228 154.944 167.388 155.425 168.599 155.425H173.637L177.443 164.07L182.819 155.425H187.858C189.068 155.425 190.229 154.944 191.085 154.088C191.941 153.232 192.421 152.07 192.421 150.86V141.448C192.412 140.243 191.927 139.092 191.072 138.243C190.217 137.395 189.062 136.919 187.858 136.919Z" fill="white" stroke="#263238" stroke-linecap="round" stroke-linejoin="round"/>
<path d="M173.015 143.867V144.287H174.74V145.464H173.061V150.504H171.637V145.464H170.605V144.287H171.637V143.885C171.613 143.589 171.656 143.291 171.761 143.013C171.866 142.734 172.032 142.483 172.245 142.276C172.459 142.07 172.716 141.913 172.997 141.817C173.279 141.721 173.578 141.688 173.873 141.721C174.338 141.699 174.799 141.816 175.197 142.059L174.786 143.164C174.552 142.995 174.271 142.903 173.983 142.899C173.335 142.853 173.015 143.2 173.015 143.867Z" fill="#263238"/>
<path d="M175.118 147.327C175.092 146.661 175.266 146.002 175.618 145.436C175.97 144.87 176.483 144.422 177.091 144.149C177.699 143.877 178.375 143.793 179.032 143.908C179.688 144.023 180.295 144.331 180.775 144.794C181.255 145.257 181.585 145.852 181.724 146.504C181.862 147.156 181.802 147.835 181.552 148.453C181.302 149.071 180.873 149.6 180.32 149.972C179.767 150.344 179.116 150.542 178.449 150.54C178.015 150.566 177.581 150.501 177.173 150.35C176.765 150.199 176.393 149.965 176.08 149.663C175.767 149.361 175.52 148.998 175.354 148.596C175.189 148.194 175.108 147.762 175.118 147.327ZM180.311 147.327C180.286 146.972 180.158 146.633 179.943 146.35C179.728 146.067 179.435 145.853 179.1 145.734C178.765 145.615 178.403 145.597 178.058 145.681C177.712 145.765 177.399 145.948 177.156 146.208C176.914 146.468 176.752 146.793 176.692 147.143C176.631 147.493 176.674 147.853 176.815 148.18C176.956 148.506 177.189 148.784 177.486 148.979C177.783 149.175 178.13 149.28 178.486 149.28C178.737 149.281 178.985 149.23 179.215 149.13C179.445 149.031 179.653 148.885 179.824 148.701C179.995 148.518 180.127 148.301 180.211 148.065C180.295 147.828 180.329 147.577 180.311 147.327Z" fill="#263238"/>
<path d="M186.81 144.122V145.519C186.698 145.511 186.585 145.511 186.473 145.519C186.218 145.499 185.963 145.536 185.724 145.628C185.486 145.72 185.272 145.864 185.096 146.05C184.921 146.235 184.79 146.458 184.712 146.701C184.635 146.944 184.612 147.202 184.647 147.455V150.495H183.178V144.195H184.574V145.108C184.83 144.764 185.17 144.493 185.562 144.32C185.954 144.147 186.384 144.079 186.81 144.122Z" fill="#263238"/>
<path d="M243.868 136.162H224.581C223.371 136.162 222.21 136.643 221.354 137.499C220.498 138.355 220.018 139.516 220.018 140.726V150.102C220.018 151.313 220.498 152.474 221.354 153.33C222.21 154.186 223.371 154.667 224.581 154.667H229.62L233.426 163.312L238.802 154.667H243.84C245.051 154.667 246.211 154.186 247.067 153.33C247.923 152.474 248.404 151.313 248.404 150.102V140.69C248.394 139.49 247.913 138.343 247.064 137.495C246.215 136.648 245.067 136.169 243.868 136.162Z" fill="white" stroke="#263238" stroke-linecap="round" stroke-linejoin="round"/>
<path d="M231.732 143.127H237.136V144.287H231.732V143.127ZM231.732 145.967H237.136V147.144H231.732V145.967Z" fill="#263238"/>
<path d="M101.768 125.325H82.509C81.2986 125.325 80.1379 125.806 79.282 126.662C78.4261 127.518 77.9453 128.679 77.9453 129.89V139.257C77.9453 140.467 78.4261 141.628 79.282 142.484C80.1379 143.34 81.2986 143.821 82.509 143.821H87.5474L91.3535 152.467L96.7295 143.821H101.768C102.978 143.821 104.139 143.34 104.995 142.484C105.851 141.628 106.332 140.467 106.332 139.257V129.853C106.322 128.649 105.837 127.497 104.982 126.649C104.127 125.801 102.972 125.325 101.768 125.325Z" fill="white" stroke="#263238" stroke-linecap="round" stroke-linejoin="round"/>
<path d="M87.6133 129.214H90.4063V130.392H89.0737V139.019H90.4063V140.197H87.6133V129.214Z" fill="#263238"/>
<path d="M94.0566 140.197V139.019H95.3801V130.392H94.0566V129.214H96.7949V140.169L94.0566 140.197Z" fill="#263238"/>
<path d="M159.016 124.367H139.757C138.547 124.367 137.386 124.848 136.53 125.704C135.674 126.56 135.193 127.721 135.193 128.931V138.261C135.193 139.472 135.674 140.633 136.53 141.489C137.386 142.345 138.547 142.826 139.757 142.826H144.795L148.611 151.472L153.987 142.826H159.016C160.226 142.826 161.387 142.345 162.243 141.489C163.099 140.633 163.58 139.472 163.58 138.261V128.895C163.57 127.69 163.085 126.539 162.23 125.691C161.375 124.842 160.22 124.367 159.016 124.367Z" fill="white" stroke="#263238" stroke-linecap="round" stroke-linejoin="round"/>
<path d="M145.472 133.706C145.937 133.861 146.165 134.181 146.165 134.902V137.139C146.145 137.259 146.152 137.383 146.188 137.5C146.223 137.617 146.286 137.724 146.37 137.813C146.454 137.901 146.558 137.969 146.673 138.011C146.788 138.052 146.911 138.066 147.033 138.051H147.279V139.229H146.686C146.422 139.269 146.152 139.247 145.898 139.165C145.644 139.084 145.411 138.946 145.219 138.76C145.027 138.575 144.88 138.348 144.789 138.097C144.698 137.846 144.666 137.577 144.696 137.312V134.902C144.696 134.509 144.495 134.336 144.167 134.336H143.783V133.14H144.167C144.495 133.14 144.696 132.966 144.696 132.574V130.155C144.666 129.89 144.698 129.621 144.789 129.37C144.879 129.12 145.027 128.893 145.219 128.708C145.412 128.524 145.644 128.386 145.898 128.306C146.153 128.226 146.422 128.206 146.686 128.247H147.279V129.424H146.996C146.874 129.408 146.75 129.42 146.634 129.461C146.518 129.502 146.414 129.57 146.329 129.659C146.244 129.748 146.182 129.856 146.147 129.974C146.112 130.092 146.106 130.216 146.129 130.337V132.565C146.165 133.24 145.937 133.56 145.472 133.706Z" fill="#263238"/>
<path d="M154.416 133.112V134.308H154.015C153.695 134.308 153.495 134.482 153.495 134.874V137.285C153.522 137.55 153.489 137.819 153.397 138.07C153.306 138.321 153.157 138.548 152.965 138.733C152.772 138.918 152.539 139.056 152.284 139.138C152.03 139.219 151.76 139.241 151.496 139.202H150.902V138.024H151.149C151.273 138.045 151.401 138.035 151.521 137.997C151.641 137.958 151.75 137.891 151.84 137.802C151.929 137.713 151.995 137.604 152.034 137.483C152.073 137.363 152.082 137.236 152.062 137.111V134.874C152.062 134.153 152.271 133.834 152.737 133.678C152.271 133.532 152.062 133.213 152.062 132.483V130.255C152.084 130.13 152.076 130.002 152.038 129.88C152.001 129.759 151.934 129.649 151.844 129.559C151.755 129.47 151.644 129.403 151.523 129.365C151.402 129.327 151.274 129.319 151.149 129.342H150.902V128.219H151.496C151.759 128.178 152.029 128.199 152.284 128.279C152.539 128.359 152.771 128.497 152.965 128.681C153.158 128.865 153.306 129.092 153.398 129.342C153.49 129.593 153.523 129.862 153.495 130.127V132.546C153.495 132.939 153.695 133.112 154.015 133.112H154.416Z" fill="#263238"/>
<path d="M215.66 122.468H196.402C195.191 122.468 194.03 122.949 193.175 123.805C192.319 124.661 191.838 125.822 191.838 127.032V136.399C191.838 137.61 192.319 138.771 193.175 139.627C194.03 140.483 195.191 140.964 196.402 140.964H201.431L205.246 149.609L210.622 140.964H215.66C216.871 140.964 218.032 140.483 218.887 139.627C219.743 138.771 220.224 137.61 220.224 136.399V126.996C220.214 125.792 219.729 124.64 218.875 123.792C218.02 122.944 216.864 122.468 215.66 122.468Z" fill="white" stroke="#263238" stroke-linecap="round" stroke-linejoin="round"/>
<path d="M205.264 129.397C205.251 129.262 205.266 129.127 205.309 128.999C205.351 128.871 205.42 128.753 205.511 128.653C205.601 128.553 205.712 128.473 205.835 128.418C205.959 128.363 206.092 128.335 206.227 128.335C206.362 128.335 206.496 128.363 206.619 128.418C206.743 128.473 206.853 128.553 206.944 128.653C207.035 128.753 207.103 128.871 207.146 128.999C207.188 129.127 207.203 129.262 207.19 129.397C207.203 129.531 207.188 129.667 207.146 129.795C207.103 129.923 207.035 130.041 206.944 130.141C206.853 130.241 206.743 130.321 206.619 130.375C206.496 130.43 206.362 130.458 206.227 130.458C206.092 130.458 205.959 130.43 205.835 130.375C205.712 130.321 205.601 130.241 205.511 130.141C205.42 130.041 205.351 129.923 205.309 129.795C205.266 129.667 205.251 129.531 205.264 129.397ZM207.19 133.87C207.165 134.22 207.072 134.561 206.916 134.874L206.314 136.536H205.401L205.876 134.71C205.707 134.638 205.563 134.517 205.463 134.363C205.364 134.208 205.314 134.027 205.319 133.843C205.319 133.59 205.42 133.347 205.598 133.168C205.777 132.989 206.02 132.889 206.273 132.889C206.526 132.889 206.768 132.989 206.947 133.168C207.126 133.347 207.227 133.59 207.227 133.843L207.19 133.87Z" fill="#263238"/>
<path d="M140.378 286.284H159.628C160.838 286.284 161.999 285.803 162.855 284.947C163.711 284.091 164.192 282.93 164.192 281.72V272.38C164.18 271.178 163.693 270.028 162.839 269.182C161.984 268.336 160.83 267.861 159.628 267.861H154.599L153.129 259.216L145.407 267.861H140.378C139.176 267.861 138.022 268.336 137.167 269.182C136.313 270.028 135.826 271.178 135.814 272.38V281.756C135.824 282.96 136.309 284.112 137.164 284.96C138.019 285.808 139.174 286.284 140.378 286.284Z" fill="white" stroke="#263238" stroke-linecap="round" stroke-linejoin="round"/>
<path d="M147.142 275.146L143.098 276.662L147.142 278.177V279.401L141.738 277.301V276.023L147.142 273.923V275.146Z" fill="#263238"/>
<path d="M151.411 270.883H152.716L148.819 281.939H147.541L151.411 270.883Z" fill="#263238"/>
<path d="M158.405 276.023V277.292L153.001 279.392V278.168L157.036 276.662L152.992 275.156V273.923L158.405 276.023Z" fill="#263238"/>
<path d="M17.9621 218.042H37.2119C38.4222 218.042 39.583 217.562 40.4389 216.706C41.2947 215.849 41.7756 214.688 41.7756 213.478V204.148C41.7756 202.937 41.2947 201.776 40.4389 200.92C39.583 200.064 38.4222 199.583 37.2119 199.583H32.1826L33.2779 190.938L22.9913 199.583H17.9621C16.7518 199.583 15.591 200.064 14.7351 200.92C13.8793 201.776 13.3984 202.937 13.3984 204.148V213.514C13.4081 214.719 13.8931 215.87 14.748 216.718C15.6028 217.567 16.7581 218.043 17.9621 218.042Z" fill="white" stroke="#263238" stroke-linecap="round" stroke-linejoin="round"/>
<path d="M23.6641 212.099C23.6641 211.857 23.7602 211.625 23.9314 211.454C24.1026 211.283 24.3347 211.186 24.5768 211.186C24.8189 211.186 25.051 211.283 25.2222 211.454C25.3934 211.625 25.4895 211.857 25.4895 212.099C25.4895 212.341 25.3934 212.574 25.2222 212.745C25.051 212.916 24.8189 213.012 24.5768 213.012C24.3347 213.012 24.1026 212.916 23.9314 212.745C23.7602 212.574 23.6641 212.341 23.6641 212.099ZM23.7736 204.723H25.5078L25.2157 210.2H24.0292L23.7736 204.723Z" fill="#263238"/>
<path d="M26.998 206.823H32.4015V208H26.998V206.823ZM26.998 209.662H32.4015V210.839H26.998V209.662Z" fill="#263238"/>
</svg>
